<svg color="#00BCD4" xmlns="http://www.w3.org/2000/svg" xmlns:xlink="http://www.w3.org/1999/xlink" version="1.1" x="0px" y="0px" viewBox="0 0 100 100" enable-background="new 0 0 100 100" xml:space="preserve"><path fill="currentColor" d="M48.366,70.375c0.375,0.375,0.884,0.586,1.414,0.586s1.039-0.211,1.414-0.586l16.902-16.901  c0.781-0.781,0.781-2.047,0-2.829c-0.781-0.781-2.048-0.781-2.828,0L52,63.913V30c0-1.104-0.896-2-2-2s-2,0.896-2,2v34.353  L34.292,50.645c-0.781-0.781-2.048-0.781-2.828,0c-0.781,0.781-0.781,2.047,0,2.829L48.366,70.375z"/><path fill="currentColor" d="M50,92c22.766,0,42-19.233,42-42S72.766,8,50,8S8,27.233,8,50S27.234,92,50,92z M50,12  c20.598,0,38,17.402,38,38S70.598,88,50,88S12,70.598,12,50S29.402,12,50,12z"/></svg>
